<svg width="18" height="18" viewBox="0 0 18 18" fill="none" xmlns="http://www.w3.org/2000/svg">
<path fill-rule="evenodd" clip-rule="evenodd" d="M17 2.00245H15.83C15.6234 1.41692 15.2403 0.909884 14.7334 0.55124C14.2265 0.192596 13.6209 0 13 0C12.3791 0 11.7735 0.192596 11.2666 0.55124C10.7597 0.909884 10.3766 1.41692 10.17 2.00245H1C0.734784 2.00245 0.48043 2.10781 0.292893 2.29534C0.105357 2.48288 0 2.73723 0 3.00245C0 3.26767 0.105357 3.52202 0.292893 3.70956C0.48043 3.89709 0.734784 4.00245 1 4.00245H10.17C10.3766 4.58798 10.7597 5.09502 11.2666 5.45366C11.7735 5.81231 12.3791 6.0049 13 6.0049C13.6209 6.0049 14.2265 5.81231 14.7334 5.45366C15.2403 5.09502 15.6234 4.58798 15.83 4.00245H17C17.2652 4.00245 17.5196 3.89709 17.7071 3.70956C17.8946 3.52202 18 3.26767 18 3.00245C18 2.73723 17.8946 2.48288 17.7071 2.29534C17.5196 2.10781 17.2652 2.00245 17 2.00245ZM13 4.00245C13.2652 4.00245 13.5196 3.89709 13.7071 3.70956C13.8946 3.52202 14 3.26767 14 3.00245C14 2.73723 13.8946 2.48288 13.7071 2.29534C13.5196 2.10781 13.2652 2.00245 13 2.00245C12.7348 2.00245 12.4804 2.10781 12.2929 2.29534C12.1054 2.48288 12 2.73723 12 3.00245C12 3.26767 12.1054 3.52202 12.2929 3.70956C12.4804 3.89709 12.7348 4.00245 13 4.00245ZM0 9.00245C0 8.73723 0.105357 8.48288 0.292893 8.29534C0.48043 8.10781 0.734784 8.00245 1 8.00245H2.17C2.3766 7.41692 2.75974 6.90988 3.2666 6.55124C3.77346 6.1926 4.37909 6 5 6C5.62091 6 6.22654 6.1926 6.7334 6.55124C7.24026 6.90988 7.6234 7.41692 7.83 8.00245H17C17.2652 8.00245 17.5196 8.10781 17.7071 8.29534C17.8946 8.48288 18 8.73723 18 9.00245C18 9.26767 17.8946 9.52202 17.7071 9.70956C17.5196 9.89709 17.2652 10.0025 17 10.0025H7.83C7.6234 10.588 7.24026 11.095 6.7334 11.4537C6.22654 11.8123 5.62091 12.0049 5 12.0049C4.37909 12.0049 3.77346 11.8123 3.2666 11.4537C2.75974 11.095 2.3766 10.588 2.17 10.0025H1C0.734784 10.0025 0.48043 9.89709 0.292893 9.70956C0.105357 9.52202 0 9.26767 0 9.00245ZM5 10.0025C5.26522 10.0025 5.51957 9.89709 5.70711 9.70956C5.89464 9.52202 6 9.26767 6 9.00245C6 8.73723 5.89464 8.48288 5.70711 8.29534C5.51957 8.10781 5.26522 8.00245 5 8.00245C4.73478 8.00245 4.48043 8.10781 4.29289 8.29534C4.10536 8.48288 4 8.73723 4 9.00245C4 9.26767 4.10536 9.52202 4.29289 9.70956C4.48043 9.89709 4.73478 10.0025 5 10.0025ZM1 14.0025C0.734784 14.0025 0.48043 14.1078 0.292893 14.2953C0.105357 14.4829 0 14.7372 0 15.0025C0 15.2677 0.105357 15.522 0.292893 15.7096C0.48043 15.8971 0.734784 16.0025 1 16.0025H10.17C10.3766 16.588 10.7597 17.095 11.2666 17.4537C11.7735 17.8123 12.3791 18.0049 13 18.0049C13.6209 18.0049 14.2265 17.8123 14.7334 17.4537C15.2403 17.095 15.6234 16.588 15.83 16.0025H17C17.2652 16.0025 17.5196 15.8971 17.7071 15.7096C17.8946 15.522 18 15.2677 18 15.0025C18 14.7372 17.8946 14.4829 17.7071 14.2953C17.5196 14.1078 17.2652 14.0025 17 14.0025H15.83C15.6234 13.4169 15.2403 12.9099 14.7334 12.5512C14.2265 12.1926 13.6209 12 13 12C12.3791 12 11.7735 12.1926 11.2666 12.5512C10.7597 12.9099 10.3766 13.4169 10.17 14.0025H1ZM14 15.0025C14 15.2677 13.8946 15.522 13.7071 15.7096C13.5196 15.8971 13.2652 16.0025 13 16.0025C12.7348 16.0025 12.4804 15.8971 12.2929 15.7096C12.1054 15.522 12 15.2677 12 15.0025C12 14.7372 12.1054 14.4829 12.2929 14.2953C12.4804 14.1078 12.7348 14.0025 13 14.0025C13.2652 14.0025 13.5196 14.1078 13.7071 14.2953C13.8946 14.4829 14 14.7372 14 15.0025Z" fill="white"/>
</svg>
