<svg width="22" height="22" viewBox="0 0 22 22" fill="none" xmlns="http://www.w3.org/2000/svg">
<path d="M17.5088 13.6854C17.2228 13.9749 17.0909 14.4021 17.1579 14.8085L18.1357 20.5049C18.2138 20.9912 18.0268 21.4764 17.6408 21.7554C17.2668 22.0448 16.7719 22.0796 16.354 21.848L11.4829 19.1735C11.3059 19.0808 11.1189 19.0218 10.933 19.0218H10.635C10.525 19.0334 10.4271 19.0808 10.338 19.126L5.46587 21.8133C5.22391 21.9406 4.94896 21.987 4.685 21.9406C4.02512 21.8017 3.59729 21.1522 3.70617 20.4691L4.685 14.7726C4.75099 14.3569 4.61901 13.9401 4.33416 13.6391L0.362752 9.58673C0.0328088 9.23938 -0.0881702 8.74036 0.066903 8.2784C0.209878 7.82569 0.582714 7.48992 1.04463 7.41003L6.51069 6.57525C6.92861 6.52893 7.29155 6.26379 7.47852 5.87013L9.8871 0.671534C9.94209 0.555752 10.0191 0.450391 10.1082 0.358923L10.206 0.277876C10.25 0.218827 10.316 0.173673 10.3831 0.12736L10.503 0.0810472L10.69 0H11.153C11.5709 0.0463127 11.9338 0.311453 12.1208 0.693533L14.5613 5.87013C14.7373 6.25221 15.0782 6.50693 15.4741 6.57525L20.9402 7.41003C21.4021 7.4795 21.7881 7.81527 21.941 8.2784C22.084 8.74036 21.963 9.25096 21.6221 9.58673L17.5088 13.6854Z" fill="#595BD4"/>
</svg>
