<svg width="22" height="22" viewBox="0 0 22 22" fill="none" xmlns="http://www.w3.org/2000/svg">
<path d="M21.983 8.80944C22.093 8.23298 21.6533 7.54123 21.1037 7.54123L14.8386 6.61889L11.9808 0.623679C11.8708 0.393094 11.7609 0.277802 11.5411 0.162509C10.9915 -0.183368 10.332 0.0472169 10.0023 0.623679L7.2544 6.61889L0.989237 7.54123C0.659491 7.54123 0.439661 7.65652 0.329746 7.8871C-0.109915 8.34827 -0.109915 9.04003 0.329746 9.5012L4.83627 14.1129L3.73712 20.6846C3.73712 20.9152 3.73712 21.1457 3.84703 21.3763C4.17678 21.9528 4.83627 22.1834 5.38585 21.8375L10.9915 18.7246L16.5972 21.8375C16.7071 21.9528 16.9269 21.9528 17.1468 21.9528C17.2567 21.9528 17.2567 21.9528 17.3666 21.9528C17.9162 21.8375 18.3558 21.261 18.2459 20.5693L17.1468 13.9976L21.6533 9.38591C21.8731 9.27061 21.983 9.04003 21.983 8.80944ZM15.1683 12.8447C14.9485 13.0753 14.8386 13.5364 14.8386 13.8823L15.608 18.7246L11.4312 16.4187C11.3213 16.3035 11.1014 16.3035 10.8816 16.3035V3.73658L12.97 8.11769C13.0799 8.46357 13.4097 8.69415 13.8493 8.69415L18.4658 9.38591L15.1683 12.8447Z" fill="#595BD4"/>
</svg>
