<svg width="14" height="17" viewBox="0 0 14 17" fill="none" xmlns="http://www.w3.org/2000/svg">
<path d="M6.66667 0C4.89856 0 3.20286 0.702379 1.95262 1.95262C0.702379 3.20286 0 4.89856 0 6.66667C0 11.1667 5.875 16.25 6.125 16.4667C6.27594 16.5958 6.46804 16.6667 6.66667 16.6667C6.86529 16.6667 7.05739 16.5958 7.20833 16.4667C7.5 16.25 13.3333 11.1667 13.3333 6.66667C13.3333 4.89856 12.631 3.20286 11.3807 1.95262C10.1305 0.702379 8.43478 0 6.66667 0ZM6.66667 14.7083C4.89167 13.0417 1.66667 9.45 1.66667 6.66667C1.66667 5.34058 2.19345 4.06882 3.13113 3.13113C4.06881 2.19345 5.34058 1.66667 6.66667 1.66667C7.99275 1.66667 9.26452 2.19345 10.2022 3.13113C11.1399 4.06882 11.6667 5.34058 11.6667 6.66667C11.6667 9.45 8.44167 13.05 6.66667 14.7083ZM6.66667 3.33333C6.0074 3.33333 5.36293 3.52883 4.81477 3.8951C4.2666 4.26137 3.83936 4.78197 3.58707 5.39106C3.33478 6.00014 3.26876 6.67036 3.39738 7.31697C3.526 7.96357 3.84347 8.55751 4.30964 9.02369C4.77582 9.48986 5.36976 9.80733 6.01637 9.93595C6.66297 10.0646 7.33319 9.99856 7.94228 9.74627C8.55137 9.49397 9.07196 9.06673 9.43823 8.51857C9.8045 7.9704 10 7.32594 10 6.66667C10 5.78261 9.64881 4.93477 9.02369 4.30964C8.39857 3.68452 7.55072 3.33333 6.66667 3.33333ZM6.66667 8.33333C6.33703 8.33333 6.0148 8.23559 5.74072 8.05245C5.46663 7.86931 5.25301 7.60902 5.12687 7.30447C5.00072 6.99993 4.96772 6.66482 5.03202 6.34152C5.09633 6.01821 5.25507 5.72124 5.48816 5.48816C5.72124 5.25507 6.01821 5.09633 6.34152 5.03202C6.66482 4.96772 6.99993 5.00072 7.30447 5.12687C7.60902 5.25301 7.86931 5.46663 8.05245 5.74072C8.23558 6.0148 8.33333 6.33703 8.33333 6.66667C8.33333 7.10869 8.15774 7.53262 7.84518 7.84518C7.53262 8.15774 7.10869 8.33333 6.66667 8.33333Z" fill="#FBFBFF"/>
</svg>
