<svg width="20" height="20" viewBox="0 0 20 20" fill="none" xmlns="http://www.w3.org/2000/svg">
<path d="M10 19.998C4.486 19.998 0 15.512 0 9.998C0 4.486 4.486 0 10 0C15.514 0 20 4.486 20 9.998C20 15.512 15.514 19.998 10 19.998ZM10 2C5.589 2 2 5.588 2 9.998C2 14.41 5.589 17.998 10 17.998C14.411 17.998 18 14.41 18 9.998C18 5.588 14.411 2 10 2Z" fill="#595BD4"/>
<path d="M10 15.998C9.822 15.998 9.644 15.951 9.485 15.856C8.924 15.519 4 12.464 4 8.998C4 6.607 5.607 5 8 5C8.735 5 9.452 5.332 10 5.845C10.548 5.332 11.265 5 12 5C14.393 5 16 6.607 16 8.998C16 12.465 11.076 15.519 10.515 15.856C10.3593 15.9491 10.1814 15.9981 10 15.998ZM8 7C6.195 7 6 8.398 6 8.998C6 10.737 8.578 12.844 10 13.81C11.422 12.845 14 10.737 14 8.998C14 8.398 13.805 7 12 7C11.551 7 11 7.551 11 7.998C11 8.26322 10.8946 8.51757 10.7071 8.70511C10.5196 8.89264 10.2652 8.998 10 8.998C9.73478 8.998 9.48043 8.89264 9.29289 8.70511C9.10536 8.51757 9 8.26322 9 7.998C9 7.551 8.449 7 8 7Z" fill="#595BD4"/>
</svg>
